HIERARCHY
ROOT joint_Root
{
	OFFSET 0.0 0.0 0.0
	CHANNELS 6 Xposition Yposition Zposition Zrotation Xrotation Yrotation 
	JOINT Hips
	{
		OFFSET 4.5925 91.4895 -427.239
		CHANNELS 6 Xposition Yposition Zposition Zrotation Xrotation Yrotation 
		JOINT Spine
		{
			OFFSET 15.7357 0.0 0.0
			CHANNELS 6 Xposition Yposition Zposition Zrotation Xrotation Yrotation 
			JOINT Chest
			{
				OFFSET 8.98455 -0.406207 0.0
				CHANNELS 6 Xposition Yposition Zposition Zrotation Xrotation Yrotation 
				JOINT Neck
				{
					OFFSET 16.3773 0.0 0.0
					CHANNELS 6 Xposition Yposition Zposition Zrotation Xrotation Yrotation 
					JOINT Head
					{
						OFFSET 6.45672 0.0 0.0
						CHANNELS 6 Xposition Yposition Zposition Zrotation Xrotation Yrotation 
						End Site
						{
							OFFSET 0.0 0.0 0.0
						}
					}
				}
				JOINT Shoulder_L
				{
					OFFSET 12.9942 -0.242716 4.98039
					CHANNELS 6 Xposition Yposition Zposition Zrotation Xrotation Yrotation 
					JOINT UpperArm_L
					{
						OFFSET 5.34809 0.0 0.0
						CHANNELS 6 Xposition Yposition Zposition Zrotation Xrotation Yrotation 
						JOINT LowerArm_L
						{
							OFFSET 24.3286 1.87007e-05 0.0
							CHANNELS 6 Xposition Yposition Zposition Zrotation Xrotation Yrotation 
							JOINT Hand_L
							{
								OFFSET 22.2916 0.0 0.0
								CHANNELS 6 Xposition Yposition Zposition Zrotation Xrotation Yrotation 
								End Site
								{
									OFFSET 0.0 0.0 0.0
								}
							}
						}
					}
				}
				JOINT Shoulder_R
				{
					OFFSET 12.9945 -0.242716 -4.98039
					CHANNELS 6 Xposition Yposition Zposition Zrotation Xrotation Yrotation 
					JOINT UpperArm_R
					{
						OFFSET -5.34813 0.0 0.0
						CHANNELS 6 Xposition Yposition Zposition Zrotation Xrotation Yrotation 
						JOINT LowerArm_R
						{
							OFFSET -24.3289 0.000322201 0.0
							CHANNELS 6 Xposition Yposition Zposition Zrotation Xrotation Yrotation 
							JOINT Hand_R
							{
								OFFSET -22.2915 -0.000108084 0.0
								CHANNELS 6 Xposition Yposition Zposition Zrotation Xrotation Yrotation 
								End Site
								{
									OFFSET 0.0 0.0 0.0
								}
							}
						}
					}
				}
			}
		}
		JOINT UpperLeg_L
		{
			OFFSET -2.19248 -6.46944 0.0
			CHANNELS 6 Xposition Yposition Zposition Zrotation Xrotation Yrotation 
			JOINT LowerLeg_L
			{
				OFFSET 39.0811 0.0 -1.23785e-05
				CHANNELS 6 Xposition Yposition Zposition Zrotation Xrotation Yrotation 
				JOINT Foot_L
				{
					OFFSET 40.9854 0.0 -1.26872e-05
					CHANNELS 6 Xposition Yposition Zposition Zrotation Xrotation Yrotation 
					JOINT Toes_L
					{
						OFFSET 11.7543 0.0 0.0
						CHANNELS 6 Xposition Yposition Zposition Zrotation Xrotation Yrotation 
						End Site
						{
							OFFSET 0.0 0.0 0.0
						}
					}
				}
			}
		}
		JOINT UpperLeg_R
		{
			OFFSET -2.19251 6.46944 0.0
			CHANNELS 6 Xposition Yposition Zposition Zrotation Xrotation Yrotation 
			JOINT LowerLeg_R
			{
				OFFSET -39.0811 -0.00228153 -0.0401928
				CHANNELS 6 Xposition Yposition Zposition Zrotation Xrotation Yrotation 
				JOINT Foot_R
				{
					OFFSET -40.9854 0.0 0.0
					CHANNELS 6 Xposition Yposition Zposition Zrotation Xrotation Yrotation 
					JOINT Toes_R
					{
						OFFSET -11.7543 0.0 0.0
						CHANNELS 6 Xposition Yposition Zposition Zrotation Xrotation Yrotation 
						End Site
						{
							OFFSET 0.0 0.0 0.0
						}
					}
				}
			}
		}
	}
}
MOTION
Frames:	4
Frame Time:	0.0333333
0.000000 0.000000 0.000000 0.000000 0.000000 -0.000000 -1.856460 92.731300 -1.748310 88.587100 -1.144990 3.126180 15.735700 0.000005 -0.000001 69.540600 87.763200 -69.290600 8.984550 -0.406207 -0.000000 -3.571720 -1.587600 0.450715 16.377300 -0.000001 -0.000001 1.351670 -2.512880 2.774500 6.456720 -0.000001 -0.000000 -4.281490 -0.563312 1.479870 12.994200 -0.242716 4.980390 -84.262600 -10.856500 -61.923500 5.348090 -0.000007 -0.000001 -41.602600 -60.706900 -69.140600 24.328600 0.000019 0.000005 2.428200 1.473220 -58.811500 22.291600 -0.000001 0.000005 12.929500 5.391240 -2.655320 12.994500 -0.242716 -4.980390 94.323800 -10.388500 -67.252600 -5.348130 -0.000001 -0.000004 -22.894400 -58.285200 -54.983100 -24.328900 0.000322 -0.000009 -6.970960 -6.080870 -49.091400 -22.291500 -0.000108 -0.000004 17.468200 5.531780 -7.869410 -2.192480 -6.469440 -0.000000 -174.271000 -12.287800 -3.167710 39.081100 -0.000007 -0.000012 -0.074287 0.208146 19.641400 40.985400 -0.000006 -0.000013 -0.693680 9.035570 -63.158500 11.754300 -0.000000 0.000003 -0.000085 -0.000895 -16.612000 -2.192510 6.469440 -0.000001 177.842000 26.263600 178.713000 -39.081100 -0.002282 -0.040193 -0.005757 0.027867 18.050400 -40.985400 0.000008 0.000006 6.031060 18.705200 -64.688200 -11.754300 -0.000006 -0.000006 -0.003917 -0.050571 -18.630200
0.000000 0.000000 0.000000 0.000000 0.000000 -0.000000 -1.845540 92.704600 -1.912950 88.641100 -1.214630 3.403130 15.735700 0.000005 -0.000001 72.365400 87.563400 -72.076000 8.984550 -0.406207 -0.000000 -3.118410 -1.503160 0.538064 16.377300 -0.000001 -0.000001 1.112230 -2.282730 2.554700 6.456720 -0.000001 -0.000000 -4.388770 -0.836938 1.730620 12.994200 -0.242716 4.980390 -85.022600 -9.987480 -63.337600 5.348090 -0.000007 -0.000001 -36.288800 -57.413400 -57.271600 24.328600 0.000019 0.000005 1.618370 0.646475 -68.243500 22.291600 -0.000001 0.000005 12.196000 5.389540 -2.600170 12.994500 -0.242716 -4.980390 93.659600 -9.323970 -68.458800 -5.348130 -0.000001 -0.000004 -19.282000 -54.107500 -46.632200 -24.328900 0.000322 -0.000009 -7.865610 -5.424700 -55.606500 -22.291500 -0.000108 -0.000004 16.811000 5.512700 -7.053420 -2.192480 -6.469440 -0.000000 -174.298000 -12.218000 -3.114160 39.081100 -0.000007 -0.000012 -0.075173 0.207843 19.884200 40.985400 -0.000006 -0.000013 -0.685595 8.926160 -63.176800 11.754300 -0.000000 0.000003 -0.000089 -0.000934 -16.613500 -2.192510 6.469440 -0.000001 177.636000 26.096300 178.767000 -39.081100 -0.002282 -0.040193 -0.019283 0.068394 18.291100 -40.985400 0.000008 0.000006 5.434040 18.760500 -64.472300 -11.754300 -0.000006 -0.000006 -0.003655 -0.047807 -18.517600
0.000000 0.000000 0.000000 0.000000 0.000000 -0.000000 -1.848140 92.672700 -2.115340 88.670600 -1.224010 3.583720 15.735700 0.000005 -0.000001 75.139200 87.347700 -74.838100 8.984550 -0.406207 -0.000000 -2.635460 -1.387330 0.570382 16.377300 -0.000001 -0.000001 0.466527 -2.274930 2.488550 6.456720 -0.000001 -0.000000 -4.204360 -0.946825 1.824440 12.994200 -0.242716 4.980390 -86.005400 -8.612660 -65.001000 5.348090 -0.000007 -0.000001 -31.903500 -53.121500 -46.210500 24.328600 0.000019 0.000005 1.379640 0.308757 -77.384600 22.291600 -0.000001 0.000005 11.879700 5.391010 -2.647550 12.994500 -0.242716 -4.980390 92.894500 -7.750720 -69.450000 -5.348130 -0.000001 -0.000004 -17.161700 -49.013800 -39.204400 -24.328900 0.000322 -0.000009 -8.671530 -4.496840 -62.793300 -22.291500 -0.000108 -0.000004 16.881800 5.500100 -6.537790 -2.192480 -6.469440 -0.000000 -174.331000 -12.153200 -3.253360 39.081100 -0.000007 -0.000012 -0.075165 0.204099 20.217600 40.985400 -0.000006 -0.000013 -0.662869 8.845910 -63.195800 11.754300 -0.000000 0.000003 -0.000086 -0.000909 -16.612500 -2.192510 6.469440 -0.000001 177.517000 26.034500 178.668000 -39.081100 -0.002282 -0.040193 -0.031011 0.102185 18.572700 -40.985400 0.000008 0.000006 4.908830 18.818900 -64.275500 -11.754300 -0.000006 -0.000006 -0.003931 -0.050720 -18.636200
0.000000 0.000000 0.000000 0.000000 0.000000 -0.000000 -1.824370 92.656500 -2.342160 88.716500 -1.241470 3.728640 15.735700 0.000005 -0.000001 76.873600 87.099300 -76.576300 8.984550 -0.406207 -0.000000 -2.112830 -1.342780 0.569822 16.377300 -0.000001 -0.000001 -0.407109 -2.176250 2.430600 6.456720 -0.000001 -0.000000 -4.104400 -1.055040 2.146180 12.994200 -0.242716 4.980390 -86.912500 -6.841400 -65.639000 5.348090 -0.000007 -0.000001 -30.386300 -46.994200 -38.255400 24.328600 0.000019 0.000005 2.489210 0.220817 -84.906500 22.291600 -0.000001 0.000005 11.476300 5.388690 -2.573070 12.994500 -0.242716 -4.980390 92.022300 -5.592440 -70.085000 -5.348130 -0.000001 -0.000004 -16.461800 -42.898900 -33.274200 -24.328900 0.000322 -0.000009 -9.070880 -3.434110 -69.434500 -22.291500 -0.000108 -0.000004 17.015200 5.487500 -6.036400 -2.192480 -6.469440 -0.000000 -174.384000 -12.285500 -3.376090 39.081100 -0.000007 -0.000012 -0.073310 0.196905 20.420900 40.985400 -0.000006 -0.000013 -0.600440 8.951590 -63.133500 11.754300 -0.000000 0.000003 -0.000098 -0.001015 -16.616500 -2.192510 6.469440 -0.000001 177.419000 25.850900 178.556000 -39.081100 -0.002282 -0.040193 -0.038964 0.124647 18.739800 -40.985400 0.000008 0.000006 4.371630 18.803500 -64.000600 -11.754300 -0.000006 -0.000006 -0.003606 -0.047273 -18.495900
